<?xml version="1.0" encoding="utf-8"?>
<!-- Generator: Adobe Illustrator 24.1.2, SVG Export Plug-In . SVG Version: 6.00 Build 0)  -->
<svg version="1.1" id="图层_1" xmlns="http://www.w3.org/2000/svg" xmlns:xlink="http://www.w3.org/1999/xlink" x="0px" y="0px"
	 viewBox="0 0 117.9 117.9" style="enable-background:new 0 0 117.9 117.9;" xml:space="preserve">
<style type="text/css">
	.st0{fill:#FB7D1A;stroke:#AF5419;stroke-width:5;stroke-miterlimit:10;}
	.st1{fill:#FFFFFF;}
	.st2{fill:none;stroke:#FFFFFF;stroke-width:2;stroke-miterlimit:10;}
	.st3{fill:none;stroke:#FFFFFF;stroke-width:6;stroke-linecap:round;stroke-linejoin:round;}
</style>
<circle class="st0" cx="58.9" cy="58.9" r="56.4"/>
<path class="st1" d="M42.5,42.8c1,0.4,1.6,0.9,1.6,1.5c0,0.3-0.1,0.6-0.4,0.8c-0.3,0.3-0.7,0.5-1.1,0.7l-15.3,6.3
	c-0.2,0.1-0.5,0.2-0.7,0.2c-0.3,0-0.6-0.1-0.8-0.3s-0.3-0.5-0.3-0.8c0-0.3,0.1-0.5,0.3-0.7c0.2-0.2,0.4-0.4,0.7-0.5l13.8-5.6
	l-13.8-5.6c-0.3-0.1-0.5-0.3-0.7-0.5c-0.2-0.2-0.3-0.5-0.3-0.8c0-0.3,0.1-0.5,0.3-0.7c0.2-0.2,0.5-0.3,0.8-0.3
	c0.2,0,0.4,0.1,0.7,0.2L42.5,42.8z"/>
<path class="st1" d="M74.7,42.8L90,36.6c0.3-0.1,0.5-0.2,0.7-0.2c0.3,0,0.5,0.1,0.7,0.3c0.2,0.2,0.3,0.4,0.3,0.8
	c0,0.6-0.3,1-0.9,1.3L77,44.4L90.8,50c0.6,0.3,0.9,0.7,0.9,1.3c0,0.3-0.1,0.5-0.3,0.8s-0.5,0.3-0.8,0.3c-0.2,0-0.4-0.1-0.7-0.2
	l-15.3-6.3c-1-0.4-1.5-0.9-1.5-1.5C73.1,43.8,73.6,43.3,74.7,42.8z"/>
<path class="st2" d="M42.5,42.8c1,0.4,1.6,0.9,1.6,1.5c0,0.3-0.1,0.6-0.4,0.8c-0.3,0.3-0.7,0.5-1.1,0.7l-15.3,6.3
	c-0.2,0.1-0.5,0.2-0.7,0.2c-0.3,0-0.6-0.1-0.8-0.3s-0.3-0.5-0.3-0.8c0-0.3,0.1-0.5,0.3-0.7c0.2-0.2,0.4-0.4,0.7-0.5l13.8-5.6
	l-13.8-5.6c-0.3-0.1-0.5-0.3-0.7-0.5c-0.2-0.2-0.3-0.5-0.3-0.8c0-0.3,0.1-0.5,0.3-0.7c0.2-0.2,0.5-0.3,0.8-0.3
	c0.2,0,0.4,0.1,0.7,0.2L42.5,42.8z"/>
<path class="st2" d="M74.7,42.8L90,36.6c0.3-0.1,0.5-0.2,0.7-0.2c0.3,0,0.5,0.1,0.7,0.3c0.2,0.2,0.3,0.4,0.3,0.8
	c0,0.6-0.3,1-0.9,1.3L77,44.4L90.8,50c0.6,0.3,0.9,0.7,0.9,1.3c0,0.3-0.1,0.5-0.3,0.8s-0.5,0.3-0.8,0.3c-0.2,0-0.4-0.1-0.7-0.2
	l-15.3-6.3c-1-0.4-1.5-0.9-1.5-1.5C73.1,43.8,73.6,43.3,74.7,42.8z"/>
<polyline class="st3" points="25.6,71.1 43.7,89.5 55.9,72.5 69.4,89.5 92.3,71.1 "/>
</svg>
