<?xml version="1.0" encoding="utf-8"?>
<!-- Generator: Adobe Illustrator 24.3.0, SVG Export Plug-In . SVG Version: 6.00 Build 0)  -->
<svg version="1.1" id="图层_1" xmlns="http://www.w3.org/2000/svg" xmlns:xlink="http://www.w3.org/1999/xlink" x="0px" y="0px"
	 viewBox="0 0 32 32" style="enable-background:new 0 0 32 32;" xml:space="preserve">
<style type="text/css">
	.st0{fill:none;stroke:#EB5757;stroke-width:1.4;stroke-linecap:round;stroke-linejoin:round;stroke-miterlimit:10;}
	.st1{fill:none;stroke:#EB5757;stroke-width:0.62;stroke-miterlimit:10;}
	.st2{fill:none;stroke:#EB5757;stroke-width:0.62;stroke-linecap:round;stroke-miterlimit:10;}
	.st3{fill:none;stroke:#EB5757;stroke-width:1.25;stroke-linecap:round;stroke-linejoin:round;}
</style>
<path class="st0" d="M2.4,8.9c2.5-4.6,7.4-7.7,13-7.7c8.2,0,14.8,6.6,14.8,14.8s-6.6,14.8-14.8,14.8c-5.6,0-10.5-3.1-13-7.7"/>
<path class="st1" d="M11.1,11.7c0.3,0.1,0.4,0.2,0.4,0.4c0,0.1,0,0.2-0.1,0.2c-0.1,0.1-0.2,0.1-0.3,0.2l-4,1.7
	c-0.1,0-0.1,0.1-0.2,0.1c-0.1,0-0.2,0-0.2-0.1S6.7,14,6.7,13.9s0-0.1,0.1-0.2c0.1-0.1,0.1-0.1,0.2-0.1l3.6-1.5l-3.6-1.5
	c-0.1,0-0.1-0.1-0.2-0.1c-0.1-0.1-0.1-0.1-0.1-0.2c0-0.1,0-0.1,0.1-0.2c0.1-0.1,0.1-0.1,0.2-0.1c0.1,0,0.1,0,0.2,0.1L11.1,11.7z"/>
<path class="st2" d="M19.6,11.7l4-1.6c0.1,0,0.1-0.1,0.2-0.1c0.1,0,0.1,0,0.2,0.1s0.1,0.1,0.1,0.2c0,0.2-0.1,0.3-0.2,0.3l-3.6,1.5
	l3.6,1.5c0.2,0.1,0.2,0.2,0.2,0.3c0,0.1,0,0.1-0.1,0.2s-0.1,0.1-0.2,0.1c-0.1,0-0.1,0-0.2-0.1l-4-1.7c-0.3-0.1-0.4-0.2-0.4-0.4
	S19.3,11.9,19.6,11.7z"/>
<polyline class="st3" points="2.4,22.9 6.7,19.2 11.5,24 14.7,19.5 18.2,24 24.2,19.2 "/>
</svg>
